<svg width="192" height="72" viewBox="0 0 192 72" fill="none" xmlns="http://www.w3.org/2000/svg">
<g filter="url(#filter0_d_1019_3826)">
<path d="M50.4097 11.3436L9.80601 30.0836C5.12143 32.2701 6.68296 39.1411 11.68 39.1411H28.8588V56.3196C28.8588 61.3166 35.7299 62.8791 37.9165 58.1936L56.6568 17.5906C58.2183 13.8416 54.1577 9.78113 50.4097 11.3436V11.3436Z" fill="#EB9E69"/>
</g>
<path d="M92.2004 23.872L82.9844 49H76.8644L67.6484 23.872H73.0484L79.9604 43.852L86.8364 23.872H92.2004ZM97.0581 26.68C96.1701 26.68 95.4261 26.404 94.8261 25.852C94.2501 25.276 93.9621 24.568 93.9621 23.728C93.9621 22.888 94.2501 22.192 94.8261 21.64C95.4261 21.064 96.1701 20.776 97.0581 20.776C97.9461 20.776 98.6781 21.064 99.2541 21.64C99.8541 22.192 100.154 22.888 100.154 23.728C100.154 24.568 99.8541 25.276 99.2541 25.852C98.6781 26.404 97.9461 26.68 97.0581 26.68ZM99.5421 29.056V49H94.5021V29.056H99.5421ZM108.842 22.36V49H103.802V22.36H108.842ZM118.141 22.36V49H113.101V22.36H118.141ZM131.257 49.324C129.337 49.324 127.609 48.904 126.073 48.064C124.537 47.2 123.325 45.988 122.437 44.428C121.573 42.868 121.141 41.068 121.141 39.028C121.141 36.988 121.585 35.188 122.473 33.628C123.385 32.068 124.621 30.868 126.181 30.028C127.741 29.164 129.481 28.732 131.401 28.732C133.321 28.732 135.061 29.164 136.621 30.028C138.181 30.868 139.405 32.068 140.293 33.628C141.205 35.188 141.661 36.988 141.661 39.028C141.661 41.068 141.193 42.868 140.257 44.428C139.345 45.988 138.097 47.2 136.513 48.064C134.953 48.904 133.201 49.324 131.257 49.324ZM131.257 44.932C132.169 44.932 133.021 44.716 133.813 44.284C134.629 43.828 135.277 43.156 135.757 42.268C136.237 41.38 136.477 40.3 136.477 39.028C136.477 37.132 135.973 35.68 134.965 34.672C133.981 33.64 132.769 33.124 131.329 33.124C129.889 33.124 128.677 33.64 127.693 34.672C126.733 35.68 126.253 37.132 126.253 39.028C126.253 40.924 126.721 42.388 127.657 43.42C128.617 44.428 129.817 44.932 131.257 44.932ZM156.446 49L149.678 40.504V49H144.638V22.36H149.678V37.516L156.374 29.056H162.926L154.142 39.064L162.998 49H156.446ZM163.645 38.956C163.645 36.94 164.041 35.152 164.833 33.592C165.649 32.032 166.741 30.832 168.109 29.992C169.501 29.152 171.049 28.732 172.753 28.732C174.241 28.732 175.537 29.032 176.641 29.632C177.769 30.232 178.669 30.988 179.341 31.9V29.056H184.417V49H179.341V46.084C178.693 47.02 177.793 47.8 176.641 48.424C175.513 49.024 174.205 49.324 172.717 49.324C171.037 49.324 169.501 48.892 168.109 48.028C166.741 47.164 165.649 45.952 164.833 44.392C164.041 42.808 163.645 40.996 163.645 38.956ZM179.341 39.028C179.341 37.804 179.101 36.76 178.621 35.896C178.141 35.008 177.493 34.336 176.677 33.88C175.861 33.4 174.985 33.16 174.049 33.16C173.113 33.16 172.249 33.388 171.457 33.844C170.665 34.3 170.017 34.972 169.513 35.86C169.033 36.724 168.793 37.756 168.793 38.956C168.793 40.156 169.033 41.212 169.513 42.124C170.017 43.012 170.665 43.696 171.457 44.176C172.273 44.656 173.137 44.896 174.049 44.896C174.985 44.896 175.861 44.668 176.677 44.212C177.493 43.732 178.141 43.06 178.621 42.196C179.101 41.308 179.341 40.252 179.341 39.028Z" fill="white"/>
<defs>
<filter id="filter0_d_1019_3826" x="0" y="8" width="64" height="64" filterUnits="userSpaceOnUse" color-interpolation-filters="sRGB">
<feFlood flood-opacity="0" result="BackgroundImageFix"/>
<feColorMatrix in="SourceAlpha" type="matrix" values="0 0 0 0 0 0 0 0 0 0 0 0 0 0 0 0 0 0 127 0" result="hardAlpha"/>
<feOffset dy="4"/>
<feGaussianBlur stdDeviation="3.5"/>
<feComposite in2="hardAlpha" operator="out"/>
<feColorMatrix type="matrix" values="0 0 0 0 0 0 0 0 0 0 0 0 0 0 0 0 0 0 0.25 0"/>
<feBlend mode="normal" in2="BackgroundImageFix" result="effect1_dropShadow_1019_3826"/>
<feBlend mode="normal" in="SourceGraphic" in2="effect1_dropShadow_1019_3826" result="shape"/>
</filter>
</defs>
</svg>
